<?xml version="1.0" encoding="UTF-8" standalone="no"?>
<!-- Uploaded to: SVG Repo, www.svgrepo.com, Generator: SVG Repo Mixer Tools -->

<svg
   version="1.1"
   id="_x32_"
   width="800px"
   height="800px"
   viewBox="0 0 512 512"
   xml:space="preserve"
   sodipodi:docname="404.svg"
   inkscape:version="1.2.2 (732a01da63, 2022-12-09)"
   xmlns:inkscape="http://www.inkscape.org/namespaces/inkscape"
   xmlns:sodipodi="http://sodipodi.sourceforge.net/DTD/sodipodi-0.dtd"
   xmlns="http://www.w3.org/2000/svg"
   xmlns:svg="http://www.w3.org/2000/svg"><defs
   id="defs8646" /><sodipodi:namedview
   id="namedview8644"
   pagecolor="#ffffff"
   bordercolor="#000000"
   borderopacity="0.25"
   inkscape:showpageshadow="2"
   inkscape:pageopacity="0.0"
   inkscape:pagecheckerboard="0"
   inkscape:deskcolor="#d1d1d1"
   showgrid="false"
   inkscape:zoom="0.62625"
   inkscape:cx="39.92016"
   inkscape:cy="712.17565"
   inkscape:window-width="1350"
   inkscape:window-height="1205"
   inkscape:window-x="2630"
   inkscape:window-y="148"
   inkscape:window-maximized="0"
   inkscape:current-layer="_x32_" />
<style
   type="text/css"
   id="style8627">
<![CDATA[
	.st0{fill:#000000;}
]]>
</style>
<g
   id="g8641"
   style="fill:#eff1f5;fill-opacity:1">
	<path
   class="st0"
   d="M510.073,140.297c-3.859-19.984-13.641-39.25-29.078-54.703c-10.313-10.297-22.328-18.078-35.047-23.25   c-19.172-7.766-40.063-9.719-60.079-5.828c-20.031,3.859-39.25,13.625-54.688,29.078l-38.188,38.172   c-0.422,0.438-0.797,0.844-1.203,1.313c0.156-0.063-11.672,12-11.781,12.125c-23.969,23.938,12.719,65.594,40,38.359   c0.078-0.094,0.203,0.125,0.359,0.172l50.469-50.5c4.922-4.875,10.469-8.516,16.469-10.906c8.984-3.688,18.875-4.609,28.313-2.75   c9.469,1.828,18.313,6.313,25.704,13.656c4.938,4.938,8.516,10.531,10.938,16.484c3.641,8.953,4.578,18.906,2.75,28.313   c-1.859,9.453-6.328,18.344-13.688,25.719L359.088,278c-4.938,4.891-10.5,8.547-16.469,10.938   c-8.953,3.656-18.891,4.563-28.328,2.75c-9.469-1.859-18.344-6.344-25.688-13.688c-4.016-4.016-7.125-8.438-9.438-13.125   c-0.266-0.063-0.5-0.125-0.766-0.188c-5.484-1.063-11.359-0.438-16.484,1.688c-3.578,1.453-6.813,3.656-9.578,6.438l-1.625,1.656   c-8.313,10.094-14.891,24.391-1.766,43.188c10.281,10.313,22.297,18.078,35.047,23.234c19.156,7.766,40.031,9.719,60.047,5.844   c19.984-3.859,39.25-13.641,54.703-29.078l82.25-82.234c10.266-10.313,18.078-22.297,23.25-35.047   C511.995,181.156,513.933,160.313,510.073,140.297z"
   id="path8629"
   style="fill:#eff1f5;fill-opacity:1" />
	<path
   class="st0"
   d="M192.026,333.734c-0.109,0.063-0.266-0.125-0.391-0.172L141.182,384c-4.922,4.922-10.5,8.547-16.484,10.969   c-8.953,3.641-18.906,4.563-28.297,2.75c-9.469-1.859-18.328-6.328-25.703-13.719c-4.922-4.906-8.531-10.469-10.969-16.453   c-3.641-8.953-4.563-18.891-2.719-28.297c1.844-9.469,6.328-18.344,13.688-25.703l82.25-82.25   c4.906-4.922,10.469-8.547,16.453-10.938c8.953-3.656,18.859-4.594,28.297-2.766c9.469,1.859,18.344,6.344,25.734,13.703   c3.969,4.016,7.109,8.438,9.422,13.125c0.266,0.063,0.484,0.109,0.734,0.172c5.484,1.031,11.375,0.453,16.5-1.672   c3.578-1.453,6.813-3.656,9.594-6.469l1.594-1.641c8.344-10.094,14.922-24.422,1.766-43.203   c-10.281-10.281-22.266-18.063-35.016-23.219c-19.172-7.766-40.031-9.734-60.047-5.844c-20.016,3.875-39.281,13.641-54.703,29.094   l-82.25,82.234c-10.281,10.297-18.078,22.297-23.25,35.047C-0.005,328.125-1.943,348.953,1.948,369   c3.859,19.984,13.641,39.25,29.078,54.656c10.281,10.281,22.297,18.125,35.047,23.266c19.188,7.781,40.063,9.688,60.047,5.813   c20.016-3.813,39.281-13.594,54.703-29.078l38.172-38.125c0.422-0.484,0.828-0.875,1.219-1.313   c-0.141,0.031,11.703-12.031,11.781-12.125C255.979,348.109,219.26,306.469,192.026,333.734z"
   id="path8631"
   style="fill:#eff1f5;fill-opacity:1" />
	<polygon
   class="st0"
   points="268.526,37.391 241.01,34.328 240.245,92.766 256.495,94.563  "
   id="polygon8633"
   style="fill:#eff1f5;fill-opacity:1" />
	<polygon
   class="st0"
   points="190.276,116.828 151.823,72.828 132.854,93 179.088,128.703  "
   id="polygon8635"
   style="fill:#eff1f5;fill-opacity:1" />
	<polygon
   class="st0"
   points="232.526,474.609 260.042,477.672 260.807,419.234 244.557,417.422  "
   id="polygon8637"
   style="fill:#eff1f5;fill-opacity:1" />
	<polygon
   class="st0"
   points="310.776,395.203 349.229,439.172 368.213,418.984 321.948,383.266  "
   id="polygon8639"
   style="fill:#eff1f5;fill-opacity:1" />
</g>
</svg>
