<?xml version="1.0" encoding="UTF-8" standalone="no"?>
<!-- Created with Inkscape (http://www.inkscape.org/) -->

<svg
   width="105.86885mm"
   height="104.63174mm"
   viewBox="0 0 105.86885 104.63174"
   version="1.1"
   id="svg5"
   xml:space="preserve"
   inkscape:version="1.2.2 (732a01da63, 2022-12-09)"
   sodipodi:docname="album.svg"
   xmlns:inkscape="http://www.inkscape.org/namespaces/inkscape"
   xmlns:sodipodi="http://sodipodi.sourceforge.net/DTD/sodipodi-0.dtd"
   xmlns="http://www.w3.org/2000/svg"
   xmlns:svg="http://www.w3.org/2000/svg"><sodipodi:namedview
     id="namedview7"
     pagecolor="#ffffff"
     bordercolor="#000000"
     borderopacity="0.25"
     inkscape:showpageshadow="2"
     inkscape:pageopacity="0.0"
     inkscape:pagecheckerboard="0"
     inkscape:deskcolor="#d1d1d1"
     inkscape:document-units="mm"
     showgrid="false"
     inkscape:zoom="0.89263468"
     inkscape:cx="220.69499"
     inkscape:cy="449.23193"
     inkscape:window-width="3440"
     inkscape:window-height="1369"
     inkscape:window-x="1912"
     inkscape:window-y="-8"
     inkscape:window-maximized="1"
     inkscape:current-layer="layer1" /><defs
     id="defs2" /><g
     inkscape:label="Layer 1"
     inkscape:groupmode="layer"
     id="layer1"
     transform="translate(-37.643711,-50.092815)"><rect
       style="fill:#4b4972;fill-opacity:1;stroke:none;stroke-width:5.28399"
       id="rect365"
       width="105.86885"
       height="104.63174"
       x="37.643711"
       y="50.092815"
       ry="0" /><path
       style="fill:#6e7f9a;fill-opacity:1;stroke-width:0.0514493"
       d="m 88.958552,143.53227 c -0.92598,-0.0468 -2.087846,-0.13786 -2.93134,-0.2297 -13.861263,-1.50905 -26.060656,-10.04105 -32.312022,-22.59835 -2.366873,-4.75442 -3.71436,-9.65073 -4.176734,-15.17687 -0.121072,-1.447 -0.121072,-4.80128 0,-6.24827 0.338731,-4.048399 1.125484,-7.641722 2.453223,-11.204528 2.614712,-7.016233 7.099907,-13.204855 12.939996,-17.854455 5.165271,-4.112336 11.151004,-6.897288 17.569968,-8.174683 2.760621,-0.549371 5.095423,-0.772726 8.077565,-0.772726 1.995698,0 2.79758,0.04071 4.551984,0.231377 11.268858,1.224321 21.567178,7.120667 28.418388,16.271048 1.50602,2.011401 2.75794,4.045759 3.89366,6.327098 2.40301,4.827016 3.76414,9.839748 4.20096,15.471285 0.0859,1.106944 0.0859,4.552494 0,5.659434 -0.32089,4.13686 -1.12536,7.87077 -2.47746,11.49894 -2.81115,7.54338 -7.72424,14.04659 -14.25195,18.86463 -4.2772,3.15695 -9.39996,5.54168 -14.62319,6.80736 -2.072714,0.50226 -4.174147,0.83414 -6.522537,1.03013 -0.894175,0.0746 -4.016748,0.13842 -4.810511,0.0983 z m 22.394328,-7.55503 c 4.37782,-2.74461 7.93822,-6.02761 11.01399,-10.15583 0.77137,-1.03533 2.37476,-3.50388 2.37476,-3.65615 0,-0.0235 -0.51515,-0.33985 -1.14475,-0.70289 -2.44298,-1.40864 -4.98929,-2.87866 -7.24152,-4.18062 -1.00454,-0.58071 -2.11585,-1.22135 -2.46957,-1.42364 -0.35371,-0.20228 -2.2985,-1.325 -4.32175,-2.49491 -6.3784,-3.68822 -6.59752,-3.81346 -6.64219,-3.79656 -0.02,0.008 -0.21972,0.2916 -0.44378,0.63117 -1.14988,1.74269 -2.751553,3.3043 -4.425844,4.31512 -0.176857,0.10683 -0.321555,0.21262 -0.321555,0.23522 0,0.0461 0.0553,0.14273 3.139829,5.48229 1.22601,2.12229 2.52225,4.36806 2.88056,4.99059 0.74476,1.29402 2.80907,4.86975 3.38606,5.86523 0.21323,0.36788 0.76151,1.31711 1.21844,2.10943 0.45692,0.79231 1.08132,1.87468 1.38757,2.40525 0.30625,0.53058 0.58256,0.96468 0.61401,0.96468 0.0315,0 0.47955,-0.26477 0.99574,-0.58838 z M 91.363722,115.4201 c 2.376793,-0.15398 4.510821,-0.87544 6.469852,-2.18729 4.572976,-3.06226 6.723486,-8.62263 5.402276,-13.968158 -0.77899,-3.151718 -2.69321,-5.876912 -5.402276,-7.691038 -2.387451,-1.598744 -5.205801,-2.366669 -8.026691,-2.187066 -2.383914,0.151784 -4.517918,0.8718 -6.482041,2.187066 -3.402479,2.278447 -5.499884,5.935624 -5.761602,10.046326 -0.230705,3.62357 1.102674,7.22571 3.648574,9.8567 2.220573,2.29478 5.317296,3.73565 8.467021,3.93965 0.889009,0.0576 0.855854,0.0575 1.684887,0.004 z m -1.304802,-7.25497 c -1.646361,-0.15786 -3.101135,-0.96331 -4.072241,-2.25464 -0.796375,-1.059 -1.18396,-2.20714 -1.18396,-3.50727 0,-1.30013 0.387585,-2.448266 1.18396,-3.507262 1.087766,-1.446466 2.747339,-2.264937 4.592529,-2.264937 1.845178,0 3.504762,0.818471 4.592516,2.264937 0.796873,1.059649 1.182465,2.203312 1.182465,3.507262 0,2.10549 -1.107807,4.0031 -2.952633,5.05771 -0.917606,0.52458 -2.262088,0.80781 -3.342636,0.7042 z M 78.65664,94.647221 c 1.115117,-1.722769 2.763872,-3.336036 4.449537,-4.353726 0.176857,-0.106828 0.321555,-0.212624 0.321555,-0.235216 0,-0.04619 -0.0553,-0.142742 -3.139831,-5.482291 -1.225997,-2.122289 -2.522244,-4.368055 -2.880542,-4.990588 -0.744768,-1.294022 -2.809075,-4.869747 -3.386069,-5.865233 -0.213218,-0.367859 -0.761511,-1.317101 -1.218427,-2.10943 -0.456917,-0.792317 -1.081325,-1.874686 -1.387574,-2.405256 -0.306248,-0.530568 -0.577233,-0.964676 -0.602187,-0.964676 -0.0758,0 -1.041975,0.594934 -2.05114,1.263018 -3.820528,2.529245 -7.149134,5.694526 -9.970401,9.481186 -0.771376,1.035336 -2.374763,3.503887 -2.374763,3.656157 0,0.02358 0.515137,0.339846 1.144749,0.702892 2.44298,1.408628 4.98929,2.878655 7.241505,4.180613 1.004549,0.580713 2.115857,1.221356 2.469572,1.423637 0.353714,0.202293 2.298502,1.325013 4.32175,2.494924 2.023248,1.169911 4.060645,2.347223 4.527548,2.616238 0.466903,0.269028 1.115167,0.644872 1.440584,0.835231 0.325417,0.190346 0.616679,0.348559 0.64725,0.351573 0.03057,0.0025 0.231668,-0.26656 0.446884,-0.599053 z"
       id="path302" /></g></svg>
