<?xml version="1.0" encoding="UTF-8" standalone="no"?>
<!-- Created with Inkscape (http://www.inkscape.org/) -->

<svg
   width="108.41364mm"
   height="109.85818mm"
   viewBox="0 0 108.41364 109.85818"
   version="1.1"
   id="svg5201"
   xml:space="preserve"
   inkscape:export-filename="logo.svg"
   inkscape:export-xdpi="96"
   inkscape:export-ydpi="96"
   inkscape:version="1.2.2 (732a01da63, 2022-12-09)"
   sodipodi:docname="logo.svg"
   xmlns:inkscape="http://www.inkscape.org/namespaces/inkscape"
   xmlns:sodipodi="http://sodipodi.sourceforge.net/DTD/sodipodi-0.dtd"
   xmlns="http://www.w3.org/2000/svg"
   xmlns:svg="http://www.w3.org/2000/svg"><sodipodi:namedview
     id="namedview5203"
     pagecolor="#ffffff"
     bordercolor="#000000"
     borderopacity="0.25"
     inkscape:showpageshadow="2"
     inkscape:pageopacity="0.0"
     inkscape:pagecheckerboard="0"
     inkscape:deskcolor="#d1d1d1"
     inkscape:document-units="mm"
     showgrid="false"
     inkscape:zoom="1.7852694"
     inkscape:cx="275.02852"
     inkscape:cy="194.64849"
     inkscape:window-width="1718"
     inkscape:window-height="1360"
     inkscape:window-x="3633"
     inkscape:window-y="0"
     inkscape:window-maximized="0"
     inkscape:current-layer="layer1" /><defs
     id="defs5198" /><g
     inkscape:label="Layer 1"
     inkscape:groupmode="layer"
     id="layer1"
     transform="translate(-44.337445,-75.882989)"><path
       style="fill:#eff1f5;stroke-width:0.0377976;fill-opacity:1"
       d="m 96.750193,185.73275 c -2.44097,-0.13601 -4.44237,-0.54784 -6.4067,-1.31829 -0.58636,-0.22999 -1.70523,-0.78065 -2.21116,-1.08823 -0.32937,-0.20025 -32.87326,-21.72309 -38.47797,-25.44733 -1.84655,-1.22701 -2.31305,-1.57754 -2.96549,-2.22836 -2.11909,-2.11382 -2.84035,-4.68197 -2.01722,-7.18269 0.242,-0.73523 0.79452,-1.72368 1.33106,-2.38125 0.11874,-0.14552 0.41488,-0.46628 0.65809,-0.71279 0.64397,-0.6527 1.75268,-1.52636 1.8891,-1.48861 0.0358,0.01 7.91464,5.21271 17.50862,11.5618 9.59398,6.34909 17.59668,11.6393 17.78378,11.75601 1.57632,0.98332 3.44936,1.81862 5.41235,2.41369 3.89348,1.1803 8.26307,1.50303 12.483927,0.92207 3.45928,-0.47615 6.70989,-1.57389 9.3369,-3.15313 0.30144,-0.1812 3.43959,-2.24275 6.97366,-4.58121 3.53408,-2.33845 11.84007,-7.83477 18.45775,-12.21403 6.61768,-4.37925 12.04558,-7.96228 12.062,-7.96228 0.0587,0 0.74645,0.50681 1.15898,0.85409 2.93621,2.47181 3.79524,5.73195 2.29872,8.72393 -0.58999,1.17956 -1.54643,2.28144 -2.78728,3.21113 -0.4477,0.33544 -41.49958,27.51368 -42.17307,27.92052 -0.8689,0.52489 -1.98202,1.02814 -3.09671,1.40006 -1.44673,0.4827 -2.8246,0.76667 -4.479007,0.9231 -0.58961,0.0557 -2.24846,0.0992 -2.74033,0.0718 z m 0.15119,-18.86371 c -3.09839,-0.11066 -6.05285,-0.88478 -8.41108,-2.20387 -0.40491,-0.22649 -8.20152,-5.37514 -36.62478,-24.18593 -0.89392,-0.5916 -2.12019,-1.40286 -2.72505,-1.80279 -1.19198,-0.78814 -1.8318,-1.27915 -2.40481,-1.84549 -1.82886,-1.80755 -2.6479,-3.96164 -2.33003,-6.12799 0.30716,-2.09341 1.6993,-4.0629 3.96693,-5.61212 l 0.45193,-0.30875 17.26322,11.42496 c 9.49477,6.28372 17.44182,11.53759 17.6601,11.67527 3.10472,1.95822 6.90234,3.15927 11.30149,3.57426 0.86034,0.0812 3.30686,0.11402 4.23995,0.057 3.701967,-0.22641 6.888227,-0.99462 9.899077,-2.38669 1.14063,-0.52737 1.83315,-0.93527 3.81483,-2.24696 0.77958,-0.51601 1.91067,-1.26398 2.51354,-1.66217 2.34376,-1.54803 31.88819,-21.10098 32.30308,-21.37867 l 0.43969,-0.29429 0.46746,0.31666 c 0.63054,0.42714 1.02126,0.74543 1.57765,1.28519 2.46725,2.39355 3.10801,5.38843 1.74147,8.13955 -0.67354,1.35598 -1.71231,2.51217 -3.17295,3.53165 -0.68416,0.47752 -41.22052,27.29318 -41.70967,27.59182 -2.37529,1.45022 -5.34771,2.29288 -8.629147,2.4463 -0.74314,0.0348 -0.97481,0.0366 -1.6329,0.0131 z m -0.66146,-19.2915 c -2.90485,-0.20422 -5.49938,-0.93157 -7.72961,-2.16691 -0.58531,-0.32421 1.25242,0.88634 -18.48304,-12.17505 -9.19899,-6.08812 -17.19319,-11.37804 -17.76488,-11.7554 -2.98021,-1.96715 -4.32508,-2.87387 -4.64911,-3.1345 -0.87946,-0.70736 -1.55134,-1.42601 -2.08331,-2.22831 -1.96106,-2.95762 -1.48128,-6.35028 1.27557,-9.02003 0.76215,-0.73807 1.0522,-0.94264 5.43795,-3.83541 0.47814,-0.31538 9.07616,-6.005081 19.1067,-12.643781 10.03054,-6.6387 18.41594,-12.17858 18.63422,-12.310838 1.93363,-1.171616 4.48981,-2.000934 7.06816,-2.293166 1.30586,-0.148008 3.131617,-0.174001 4.308927,-0.06135 2.77104,0.265154 5.32145,1.028243 7.35163,2.199629 0.55286,0.318989 39.90258,26.346156 40.46235,26.763096 2.76066,2.05625 4.01123,4.78541 3.4393,7.50572 -0.38596,1.83578 -1.60022,3.55811 -3.49599,4.95877 -0.35736,0.26403 -40.9113,27.11229 -41.77306,27.65536 -2.12521,1.33929 -4.77599,2.19331 -7.722917,2.48817 -0.70429,0.0705 -2.69634,0.10227 -3.38289,0.054 z m -19.48467,-22.11035 c 4.13484,-0.25361 7.70719,-1.74342 9.19449,-3.83444 0.23837,-0.33512 0.52644,-0.93117 0.63996,-1.32413 l 0.0873,-0.30238 0.0101,-7.79416 0.0101,-7.79416 0.12223,-0.0194 c 0.1666,-0.0264 29.431387,-2.7449 29.538217,-2.74385 l 0.085,8.3e-4 v 4.51682 4.51681 l -3.18445,3.8e-4 c -3.25513,3.8e-4 -3.81415,0.018 -4.90424,0.1545 -3.21593,0.4027 -5.95139,1.56457 -7.44804,3.16352 -1.232437,1.31666 -1.519667,2.82329 -0.81216,4.26003 1.00822,2.04739 3.88864,3.64612 7.65672,4.24973 1.13891,0.18244 1.53493,0.20899 3.11703,0.20899 1.58384,0 1.95189,-0.0247 3.1372,-0.21082 4.19542,-0.65866 7.32311,-2.6332 7.92657,-5.00411 l 0.0865,-0.33992 V 105.01949 92.867559 l -0.0924,-0.18899 c -0.26092,-0.5336 -1.00327,-0.98119 -1.88134,-1.13431 -0.52254,-0.0911 -1.10765,-0.0672 -3.23463,0.1323 -1.10603,0.10373 -5.03005,0.46977 -8.72004,0.81341 -3.68999,0.34364 -7.61055,0.70911 -8.712347,0.81217 -1.1018,0.10305 -5.20273,0.48548 -9.11318,0.84983 -5.2022,0.4847 -7.18999,0.68279 -7.40834,0.73825 -0.42373,0.10762 -0.75101,0.24537 -1.04164,0.43842 -0.29379,0.19516 -0.44524,0.35715 -0.58922,0.63027 l -0.10387,0.19704 -0.01,8.623221 -0.01,8.62322 -3.35422,0.0197 c -3.38554,0.0199 -3.7231,0.0324 -4.84565,0.1796 -2.98441,0.39135 -5.53474,1.43395 -7.05835,2.8855 -1.25805,1.19855 -1.71486,2.53345 -1.33546,3.90253 0.53568,1.93308 2.89738,3.65667 6.18108,4.51101 1.23053,0.32015 2.23057,0.47143 3.83646,0.58032 0.42232,0.0286 1.66286,0.0209 2.23006,-0.0139 z"
       id="path5217" /></g></svg>
