<?xml version="1.0" encoding="UTF-8" standalone="no"?>
<!-- Uploaded to: SVG Repo, www.svgrepo.com, Generator: SVG Repo Mixer Tools -->

<svg
   fill="#000000"
   width="800"
   height="790.65173"
   viewBox="0 0 32 31.626069"
   version="1.1"
   id="svg2967"
   sodipodi:docname="user.svg"
   inkscape:version="1.2.2 (732a01da63, 2022-12-09)"
   xmlns:inkscape="http://www.inkscape.org/namespaces/inkscape"
   xmlns:sodipodi="http://sodipodi.sourceforge.net/DTD/sodipodi-0.dtd"
   xmlns="http://www.w3.org/2000/svg"
   xmlns:svg="http://www.w3.org/2000/svg">
  <defs
     id="defs2971" />
  <sodipodi:namedview
     id="namedview2969"
     pagecolor="#ffffff"
     bordercolor="#000000"
     borderopacity="0.25"
     inkscape:showpageshadow="2"
     inkscape:pageopacity="0.0"
     inkscape:pagecheckerboard="0"
     inkscape:deskcolor="#d1d1d1"
     showgrid="false"
     inkscape:zoom="0.313125"
     inkscape:cx="92.61477"
     inkscape:cy="-124.5509"
     inkscape:window-width="3440"
     inkscape:window-height="1369"
     inkscape:window-x="1912"
     inkscape:window-y="-8"
     inkscape:window-maximized="1"
     inkscape:current-layer="svg2967" />
  <title
     id="title2963">user</title>
  <rect
     style="fill:#4b4972;fill-opacity:1;stroke:none;stroke-width:1.59714"
     id="rect365"
     width="32"
     height="31.62607"
     x="0"
     y="0"
     ry="0" />
  <g
     id="g7165"
     transform="matrix(0.89221557,0,0,0.89221557,1.7255204,1.7940305)">
    <path
       fill-rule="evenodd"
       clip-rule="evenodd"
       d="M 8.0000002,10.379241 C 8.0000002,5.960962 11.58172,2.379242 16,2.379242 c 4.418266,0 8,3.58172 8,7.999999 0,4.418267 -3.581734,8 -8,8 -4.41828,0 -7.9999998,-3.581733 -7.9999998,-8 z"
       fill="#323232"
       id="path4805"
       style="fill:#6e7f9a;fill-opacity:1;stroke-width:1.33333" />
    <path
       fill-rule="evenodd"
       clip-rule="evenodd"
       d="M 7.2412532,22.249241 C 9.4078262,21.340974 12.297733,21.045908 16,21.045908 c 3.694666,0 6.580133,0.293866 8.7448,1.197466 2.323466,0.969867 3.7496,2.6176 4.509866,5.014134 0.2824,0.890666 -0.3856,1.7884 -1.309066,1.7884 H 4.0461202 c -0.919693,0 -1.583733,-0.893734 -1.303587,-1.779467 0.75796,-2.3964 2.179054,-4.0448 4.49872,-5.0172 z"
       fill="#323232"
       id="path4807"
       style="fill:#6e7f9a;fill-opacity:1;stroke-width:1.33333" />
  </g>
</svg>
